<svg width="24" height="24" viewBox="0 0 24 24" fill="none" xmlns="http://www.w3.org/2000/svg">
<path d="M24 12C24 5.37258 18.6274 0 12 0C5.37258 0 0 5.37258 0 12C0 18.6274 5.37258 24 12 24C18.6274 24 24 18.6274 24 12Z" fill="white"/>
<path d="M9.10166 6.59327C9.10166 7.39431 8.40729 8.04368 7.55083 8.04368C6.69432 8.04368 6 7.39431 6 6.59327C6 5.79222 6.69432 5.14285 7.55083 5.14285C8.40729 5.14285 9.10166 5.79222 9.10166 6.59327Z" fill="black"/>
<path d="M6.21207 9.1098H8.86302V17.1429H6.21207V9.1098Z" fill="black"/>
<path d="M13.131 9.10981H10.4801V17.1429H13.131C13.131 17.1429 13.131 14.614 13.131 13.0328C13.131 12.0837 13.4551 11.1304 14.7481 11.1304C16.2094 11.1304 16.2006 12.3724 16.1938 13.3347C16.1849 14.5924 16.2061 15.8759 16.2061 17.1429H18.8571V12.9032C18.8346 10.1961 18.1292 8.94867 15.8085 8.94867C14.4303 8.94867 13.576 9.57438 13.131 10.1404V9.10981Z" fill="black"/>
</svg>
