<svg width="121" height="82" viewBox="0 0 121 82" fill="none" xmlns="http://www.w3.org/2000/svg">
<path opacity="0.45" d="M115.879 51.8247C112.97 47.1076 108.984 43.3494 104.846 39.9668C101.378 37.1298 97.5531 34.2088 96.123 29.6826C95.3411 27.2149 95.3637 24.487 94.485 22.0613C93.3136 18.8275 89.6856 14.9096 86.5967 13.4974C81.8684 11.3358 76.1543 14.6135 71.2431 12.9289C69.215 12.2331 68.6789 10.9038 67.2815 9.50771C65.7851 8.01303 63.9866 6.71329 62.2588 5.51533C58.8688 3.16493 55.1167 1.27744 51.0749 0.456342C43.9572 -0.989443 36.3641 1.07536 30.4895 5.58479C26.9584 8.29589 24.0385 11.8527 21.8552 15.8501C19.7687 19.6733 18.8468 23.9121 16.9146 27.7731C13.293 35.0083 5.77603 39.0183 2.22025 46.2955C-0.395137 51.6527 -0.502139 58.1996 0.87449 64.1065C2.25112 70.0114 4.98997 75.3979 7.86669 80.5872C7.88007 80.6111 7.89303 80.6319 7.90558 80.6516H12.6551C30.7792 80.5889 108.87 80.3407 110.725 80.7152H114.334C116.966 78.3776 119.367 71.9209 119.847 68.0221C120.546 62.3481 118.787 56.5419 115.879 51.8247Z" fill="#F7EEEB"/>
<path d="M77.9945 45.9161C77.3356 46.9694 75.6159 48.1974 74.3951 48.1796C70.2382 48.1013 68.8709 45.2142 68.4219 44.1622C68.5064 44.141 68.6484 44.1238 68.7491 44.1112C69.5156 43.9988 70.2967 43.2266 70.5259 42.3547C70.8208 41.222 71.1821 39.0065 71.1395 37.5977L76.3967 40.565C76.3884 40.9716 76.3621 41.4167 76.3238 41.8653C76.2966 42.1388 76.2703 42.4063 76.2394 42.6671C76.2104 42.9164 76.1775 43.1533 76.1475 43.373C76.0507 44.1077 76.3728 44.8364 76.9794 45.241L77.9945 45.9161Z" fill="#FE8E68"/>
<path d="M78.4468 34.3763C78.1632 35.1355 78.2832 35.9977 78.5713 36.755C78.775 37.2907 79.2275 36.8179 79.7909 36.8276C80.6624 36.8425 81.3439 35.9173 81.8719 33.4635C82.2067 31.6633 82.2917 30.7496 82.2248 30.5767C81.9843 29.9545 81.1906 29.6201 80.536 29.5615" fill="#3D302A"/>
<path d="M79.7728 28.98C81.1468 30.6689 81.6474 35.4224 80.4862 38.7324C79.6607 41.0859 78.7028 42.6058 77.5817 42.5569C75.8827 42.483 72.5884 41.0597 71.5147 39.8685C69.5831 37.7254 70.1451 33.5259 70.5441 30.8802C70.9066 28.4768 72.0088 25.3579 74.9705 25.9516C76.9179 26.3421 78.5392 27.4637 79.7728 28.98Z" fill="#FE8E68"/>
<path d="M71.9639 30.501C72.2692 30.8729 72.8061 30.9551 73.2485 31.0281C73.8428 31.1261 74.1383 31.3332 74.4453 31.8839C74.6416 32.2362 74.8367 32.6221 75.1871 32.8134C75.3521 32.9035 75.6022 32.916 75.6837 32.7444C75.5269 32.6384 75.4742 32.4187 75.5137 32.2311C75.5532 32.0435 75.6668 31.8818 75.7861 31.7332C75.887 31.8727 75.8977 32.0572 75.953 32.2211C76.0265 32.4382 76.1853 32.624 76.3866 32.7274C76.4185 32.7438 76.4537 32.7587 76.4891 32.7536C76.5372 32.7469 76.573 32.7062 76.6041 32.6682C76.821 32.4042 77.0325 31.8998 77.3331 31.7391C77.3928 32.0274 77.501 32.2544 77.6755 32.4926C77.8274 32.6999 78.0093 32.9135 78.2583 32.963C78.3388 32.979 78.4386 32.967 78.4766 32.893C78.5229 32.8029 78.4505 32.7117 78.4616 32.6204C78.4721 32.5341 78.5118 32.4964 78.5552 32.4233C78.6659 32.2366 78.7662 32.0557 78.911 31.8925C79.2051 32.2334 79.5263 32.5501 79.8703 32.8384C79.9463 32.902 80.0582 32.9651 80.1341 32.9016C80.1745 32.8678 80.1854 32.8103 80.1938 32.7576C80.236 32.4911 80.2782 32.2246 80.3204 31.9579C80.344 31.8083 80.4302 31.6132 80.5743 31.6511C80.644 31.6696 80.6862 31.7395 80.7241 31.802C80.7724 31.8822 81.6161 32.791 81.634 32.7205C81.7655 32.2047 82.0357 31.7342 82.167 31.2182C83.0129 27.8938 79.2343 25.2221 76.3469 25.2081C75.7042 25.2049 75.1032 25.3424 74.4807 25.4829C73.8167 25.6332 73.1292 25.7448 72.5252 26.0825C71.6803 26.5548 71.0387 27.4122 71.2037 28.4368" fill="#3D302A"/>
<path d="M73.3563 29.6214C73.7751 30.1059 73.8872 30.7872 73.9259 31.4318C73.9839 32.4026 73.9057 33.4123 73.465 34.2747C73.3396 34.52 73.2475 35.7352 73.0536 35.6681C72.9923 35.6469 73.0024 34.7053 72.8404 34.1973C72.5896 33.4102 71.4323 33.1114 70.9123 33.6072C70.0816 34.3994 70.5691 35.3602 70.8436 35.9578C71.0092 36.3183 71.2702 36.724 71.3142 37.1063C71.3708 37.5958 71.3862 39.3759 71.0734 39.7933C70.8121 40.142 70.5339 38.4581 70.2985 38.1265C68.5472 35.6567 66.8672 29.367 69.8588 28.0048C70.3133 27.7979 71.7179 27.6898 72.1429 27.954" fill="#3D302A"/>
<path d="M84.4238 79.6131C84.5974 79.6434 84.7724 79.6673 84.9516 79.6734C85.9142 79.7055 86.8439 79.4891 87.7855 79.324C88.6131 79.1788 88.8376 79.0986 88.8197 78.0811C88.6765 70.0206 87.5131 61.9832 85.4228 54.2085C85.1034 53.021 84.7569 51.8255 84.1456 50.7638C83.1031 48.9535 80.7063 47.3889 78.8699 46.5114C78.6102 46.3874 77.5359 47.084 77.2748 46.9636C77.0453 46.8578 76.8441 46.6956 76.6134 46.5928C75.9389 46.2917 75.4866 46.921 74.9219 47.1822C74.6308 47.317 74.3048 47.4017 73.9832 47.3881C73.7219 47.377 73.4852 47.2164 73.2457 47.3426C72.1714 47.9085 69.5037 43.7031 69.5037 43.7031L68.3489 44.934L64.9691 48.5447L56.5194 60.4151C56.5194 60.4151 54.9863 70.1436 53.9322 76.5199C53.7498 77.6205 53.0241 79.9965 52.8809 80.8306C52.9117 80.6512 60.0924 80.6011 60.4805 80.6011C65.4734 80.6011 70.1239 80.6011 75.117 80.6011C75.9381 80.6011 78.1458 80.9565 78.7226 80.3415C79.4319 79.585 80.254 76.1189 80.2961 75.1474C80.4379 71.8806 80.2186 68.6386 80.1756 65.3513C80.1931 66.6875 80.57 67.8966 80.7309 69.206C80.938 70.891 81.2351 72.5748 81.5018 74.2511C81.7162 75.5991 81.9216 76.9488 82.086 78.3044C82.16 78.9142 82.0648 79.2776 82.5714 79.5162C82.9976 79.717 83.9264 79.5267 84.4238 79.6131Z" fill="#DB212C"/>
<path d="M81.7118 76.8228C81.3204 76.6583 78.9071 76.0479 77.8187 75.8183C77.2477 75.6979 74.6646 75.0146 74.0658 75.0146C73.467 75.0146 72.6523 75.8872 72.6523 75.8872L72.8682 78.8895C73.444 78.8308 74.2154 79.1361 74.63 79.1948C75.0445 79.2536 76.4495 79.2609 77.3129 78.8192C77.3623 78.7938 77.4068 78.7657 77.4535 78.7389C77.8012 79.053 78.2379 79.3598 78.72 79.3843C78.72 79.3843 79.0976 79.3455 79.0618 79.1896C79.0443 79.1138 78.7949 78.7233 78.5435 78.3425C78.913 78.7267 79.5184 79.3491 80.2162 79.3843C80.2162 79.3843 80.594 79.3455 80.558 79.1896C80.5368 79.0977 80.1759 78.5454 79.8826 78.1062C79.8865 78.1096 79.8919 78.1133 79.8956 78.1165C80.2014 78.3916 80.9298 79.3407 81.7932 79.3843C81.7932 79.3843 82.171 79.3455 82.135 79.1896C82.1221 79.1329 81.9793 78.9009 81.8037 78.6287C82.0241 78.7997 82.2941 78.9833 82.6213 79.148C83.5538 79.6177 84.0837 79.2611 84.0837 79.148C84.0839 79.0347 82.1033 76.9871 81.7118 76.8228Z" fill="#FE8E68"/>
<path d="M73.3196 73.335C73.3196 73.335 74.8226 74.2039 74.689 76.0503C74.5555 77.8966 74.0114 80.0378 71.7434 79.8135C69.4755 79.5892 73.3196 73.335 73.3196 73.335Z" fill="#872E2E"/>
<path d="M71.2526 79.6304C65.8167 81.5548 58.5417 79.7166 53.9305 76.5201C51.0415 74.5218 49.1988 71.9862 49.5085 69.5078C50.3132 63.0699 55.2745 48.3149 59.5677 46.1608C62.485 44.6959 66.0257 44.0886 67.9973 43.8467C68.9228 43.7317 69.5021 43.7031 69.5021 43.7031L68.7858 45.7629L65.2006 56.0699C65.0679 62.1878 60.7746 65.819 61.6275 67.2428C62.4805 68.6625 69.2243 70.1971 72.765 72.6302C73.7472 73.3073 74.9905 78.1942 71.2526 79.6304Z" fill="#DB212C"/>
<path d="M49.5076 69.666L49.4962 70.0951C49.4969 70.1665 49.487 70.2378 49.496 70.3087L49.5201 70.5213C49.5403 70.6621 49.5399 70.8059 49.5755 70.9437L49.6753 71.3577C49.8407 71.8991 50.0691 72.4218 50.3805 72.8925C50.9778 73.8496 51.7682 74.6715 52.6397 75.3768C54.3867 76.7906 56.3983 77.8478 58.497 78.6171C60.5914 79.4033 62.7882 79.9219 65.0151 80.1101C66.1279 80.2077 67.2492 80.219 68.3637 80.1216C69.4788 80.0343 70.5865 79.8251 71.66 79.4848C70.6085 79.8931 69.4977 80.135 68.3789 80.2752C67.2576 80.4047 66.1246 80.4206 64.9976 80.3516C63.8698 80.2863 62.7489 80.1134 61.6458 79.8677C60.5424 79.6216 59.4543 79.3033 58.3912 78.9123C57.3317 78.512 56.2954 78.0444 55.3034 77.4905C54.3134 76.935 53.3557 76.3091 52.4899 75.5629C51.6225 74.823 50.8356 73.9669 50.2523 72.9724C49.9545 72.4797 49.7422 71.9354 49.5967 71.3791C49.4526 70.8184 49.4415 70.2338 49.5076 69.666Z" fill="#874C2E"/>
<path d="M65.2029 56.0723C65.2073 57.2323 65.0486 58.3947 64.7533 59.5203C64.4543 60.6457 64.0191 61.7308 63.5123 62.7739C63.26 63.2964 62.9892 63.8088 62.7118 64.3147C62.4373 64.8219 62.156 65.3257 61.9258 65.8434C61.8124 66.1017 61.7144 66.3673 61.6747 66.6294C61.6638 66.7581 61.6535 66.8892 61.6898 67.0013C61.6976 67.0617 61.733 67.1087 61.7535 67.1626C61.7926 67.2107 61.8196 67.2638 61.8682 67.3089C62.2355 67.6845 62.7629 67.9392 63.2641 68.1833C65.3178 69.137 67.4983 69.8441 69.5777 70.7981C70.6168 71.2746 71.6461 71.7883 72.6022 72.4308L72.7797 72.5536C72.8388 72.5953 72.895 72.6503 72.9522 72.6982C73.0584 72.8041 73.1522 72.9221 73.2265 73.0503C73.379 73.3046 73.482 73.5816 73.5615 73.8623C73.7129 74.4268 73.7773 75.0087 73.7823 75.5885C73.7442 75.0106 73.6514 74.4352 73.4833 73.8867C73.3071 73.3438 73.0335 72.8155 72.5203 72.5609C71.5599 71.9526 70.528 71.4677 69.4834 71.0209C68.4359 70.5798 67.3771 70.1631 66.3121 69.7583C65.2488 69.3479 64.1782 68.9542 63.1335 68.4689C62.6192 68.2089 62.0908 67.964 61.6513 67.5129C61.5953 67.4591 61.5513 67.3836 61.5031 67.3181C61.4681 67.2392 61.4216 67.1628 61.4083 67.0781C61.3597 66.9106 61.3743 66.7453 61.3899 66.5877C61.4401 66.2761 61.5498 65.9957 61.6696 65.7267C61.9136 65.1901 62.2005 64.688 62.4789 64.1827C62.7571 63.6774 63.0376 63.1757 63.3012 62.6652C64.3605 60.6312 65.0963 58.3964 65.2029 56.0723Z" fill="#872E2E"/>
<path d="M79.2913 46.7132C78.7722 47.2384 76.464 48.9148 74.2628 48.9148C73.8968 48.9148 73.5103 48.8821 73.1 48.804C71.2532 48.4592 69.6959 47.2038 68.7866 45.7634C68.6176 45.4928 68.4686 45.2137 68.3481 44.9346C68.183 44.5734 68.0664 44.2041 67.998 43.8472C68.9236 43.7322 69.8087 43.4943 69.9535 43.3262C70.1105 44.4257 71.4423 46.4118 73.4581 46.7851C73.7116 46.8345 73.9488 46.8548 74.1783 46.859H74.1824C75.1279 46.8754 75.8561 46.5677 76.3512 46.2559C76.3554 46.2559 77.3171 45.4831 77.321 45.4789L79.2913 46.7132Z" fill="#DB212C"/>
<path d="M76.1662 36.5372C76.3724 36.5372 76.5395 36.2009 76.5395 35.7862C76.5395 35.3714 76.3724 35.0352 76.1662 35.0352C75.9601 35.0352 75.793 35.3714 75.793 35.7862C75.793 36.2009 75.9601 36.5372 76.1662 36.5372Z" fill="#56211A"/>
<path d="M76.3278 36.3117C76.4171 36.3117 76.4895 36.2089 76.4895 36.0821C76.4895 35.9553 76.4171 35.8525 76.3278 35.8525C76.2384 35.8525 76.166 35.9553 76.166 36.0821C76.166 36.2089 76.2384 36.3117 76.3278 36.3117Z" fill="white"/>
<path d="M80.1838 36.8809C80.39 36.8809 80.5571 36.5447 80.5571 36.1299C80.5571 35.7151 80.39 35.3789 80.1838 35.3789C79.9777 35.3789 79.8105 35.7151 79.8105 36.1299C79.8105 36.5447 79.9777 36.8809 80.1838 36.8809Z" fill="#56211A"/>
<path d="M78.9044 39.3579C78.8999 39.5164 78.2497 40.481 77.6177 40.4044C77.0877 40.3402 76.623 39.3267 76.9021 38.8648C77.0514 38.7037 78.909 39.1995 78.9044 39.3579Z" fill="white"/>
<path d="M75.0566 33.9421C75.5188 33.5264 76.6308 33.6877 77.1037 33.996C77.1963 34.0564 77.2965 33.92 77.2199 33.8424C76.8999 33.518 76.3658 33.4987 75.9408 33.5146C75.6182 33.5266 75.0891 33.5123 74.9786 33.8959C74.9648 33.9437 75.0231 33.9723 75.0566 33.9421Z" fill="#3D302A"/>
<path d="M79.5777 34.2233C79.8603 34.2013 80.1226 34.1484 80.4045 34.22C80.687 34.2917 80.8949 34.4676 81.1459 34.6023C81.2003 34.6315 81.2488 34.5742 81.2254 34.5213C80.9786 33.9656 80.0208 33.7623 79.5438 34.0964C79.4942 34.1312 79.5061 34.2288 79.5777 34.2233Z" fill="#3D302A"/>
<path d="M78.4351 35.8068C78.4164 36.2389 78.4326 36.6817 78.5024 37.1089C78.5275 37.2629 78.7213 37.6725 78.6899 37.8043C78.6557 37.948 78.4096 38.126 78.326 38.2676C78.2837 38.3392 78.3662 38.4132 78.4337 38.3774C78.6845 38.2447 78.9724 38.0483 78.9203 37.7395C78.872 37.4528 78.7434 37.1775 78.6999 36.8823C78.6475 36.5247 78.6436 36.1661 78.6123 35.8068C78.6026 35.6923 78.4403 35.6891 78.4351 35.8068Z" fill="#CC6144"/>
<path d="M80.2965 36.6717C80.3858 36.6717 80.4582 36.5624 80.4582 36.4276C80.4582 36.2929 80.3858 36.1836 80.2965 36.1836C80.2072 36.1836 80.1348 36.2929 80.1348 36.4276C80.1348 36.5624 80.2072 36.6717 80.2965 36.6717Z" fill="white"/>
<path d="M74.0077 41.1668C74.5872 41.8608 75.5796 42.3281 76.4711 42.3537C76.56 42.3562 76.583 42.2095 76.4925 42.1923C75.5488 42.0138 74.8506 41.6835 74.096 41.0768C74.0335 41.0265 73.9546 41.1033 74.0077 41.1668Z" fill="#CC6144"/>
<path d="M69.5028 43.36C68.1649 42.7135 67.449 44.7636 67.3138 45.7685C67.0539 47.7001 67.8949 49.5001 68.6589 51.2094C69.4615 53.0048 70.3792 54.7401 71.1996 56.5261C71.6243 57.4506 71.9993 58.3978 72.2824 59.3778C72.5785 60.4022 72.6123 61.5444 72.9759 62.5316C73.0255 62.6664 73.1958 62.6366 73.2127 62.4989C73.3899 61.0678 72.7684 59.3077 72.2845 57.9687C71.8211 56.6868 71.2225 55.4616 70.6251 54.2407C69.8456 52.6476 69.0548 51.0394 68.4141 49.3815C68.0929 48.5501 67.8278 47.681 67.771 46.7837C67.7255 46.0669 67.9838 43.1478 69.352 43.7243C69.5555 43.8099 69.7024 43.4565 69.5028 43.36Z" fill="#872E2E"/>
<path d="M77.3173 45.566C79.0005 46.2188 78.412 49.3559 78.182 50.7161C77.9019 52.3717 77.3772 53.9768 76.7197 55.5143C75.4371 58.5131 73.7092 61.2945 72.1622 64.1535C72.0347 64.3891 72.3855 64.599 72.5164 64.3646C74.4397 60.922 76.6323 57.5807 77.9023 53.8085C78.4916 52.0582 78.8676 50.2165 78.8937 48.3619C78.911 47.1287 78.733 45.6277 77.4226 45.177C77.1784 45.0931 77.0831 45.4752 77.3173 45.566Z" fill="#872E2E"/>
<path d="M75.0737 62.6962C73.7734 62.657 72.4733 62.6175 71.173 62.5783C70.9632 62.572 70.8401 62.7514 70.8166 62.9417C70.5716 64.9329 70.4866 66.9631 70.1931 68.9454C70.1586 69.1787 70.2839 69.3999 70.5368 69.4054C71.8192 69.4327 73.102 69.4717 74.3846 69.4859C74.4518 69.4868 74.508 69.4704 74.5556 69.4442C74.5576 69.4431 74.5597 69.4417 74.5617 69.4406C74.5743 69.4333 74.587 69.4264 74.5982 69.4175C74.6572 69.3756 74.705 69.3114 74.7282 69.2192C75.2231 67.261 75.2239 65.0689 75.4301 63.0597C75.4505 62.8599 75.25 62.7015 75.0737 62.6962Z" fill="#872E33"/>
<path d="M80.2327 70.7719C80.2893 69.6917 80.1842 68.5982 80.1765 67.5157C80.1687 66.3943 80.2017 65.2742 80.2601 64.1545C80.3167 63.069 80.4027 61.9856 80.5243 60.9055C80.6496 59.7932 80.8778 58.6915 80.9933 57.5798C81.0087 57.4306 80.7751 57.4036 80.7397 57.5448C80.4838 58.5677 80.3848 59.6551 80.2638 60.703C80.1313 61.8496 80.0344 63.0012 79.98 64.1543C79.9274 65.2733 79.9208 66.3955 79.9455 67.5154C79.9693 68.5976 79.9699 69.716 80.1877 70.778C80.1932 70.8051 80.2313 70.7971 80.2327 70.7719Z" fill="#872E2E"/>
<path d="M69.4198 45.3766C69.7673 46.8307 71.3637 48.064 72.7679 48.2786C72.8866 48.2967 72.9385 48.1301 72.8185 48.0912C72.094 47.8573 71.4102 47.5517 70.8258 47.0467C70.2608 46.5584 69.915 45.9566 69.5169 45.335C69.4842 45.284 69.4051 45.3157 69.4198 45.3766Z" fill="#872E2E"/>
<path d="M74.0925 48.2853C74.3374 48.2289 74.58 48.1699 74.8216 48.1C75.0372 48.0377 75.2636 47.9947 75.4521 47.8665C75.5083 47.8283 75.4877 47.7376 75.4173 47.7358C74.9739 47.724 74.4607 47.9724 74.0483 48.1216C73.9481 48.1579 73.9872 48.3097 74.0925 48.2853Z" fill="#872E2E"/>
<path d="M71.7095 34.6602C71.8451 34.4477 72.0543 35.1068 72.063 35.1621C72.1023 35.4182 72.0508 35.6469 71.9864 35.8918C71.9624 35.9839 72.2412 35.9113 72.2743 35.846C72.4556 35.4887 72.4692 34.8673 72.1541 34.5742C71.9572 34.391 71.5749 34.4414 71.4309 34.6709C71.3669 34.7731 71.6644 34.7309 71.7095 34.6602Z" fill="#CC6144"/>
<path d="M72.1518 35.1647C72.1501 35.137 72.1528 35.1099 72.1598 35.0831C72.1627 35.0749 72.1608 35.068 72.1545 35.0623C72.0425 34.9232 71.8691 34.8586 71.7005 34.9242C71.6902 34.9282 71.6546 34.9448 71.6697 34.9612C71.7098 35.0048 71.7888 35.0031 71.8402 35.0292C71.8831 35.0508 71.9154 35.0804 71.9503 35.112C71.9874 35.1456 72.0316 35.1595 72.0705 35.1918C72.0874 35.2056 72.1518 35.1909 72.1518 35.1647Z" fill="#CC6144"/>
<path d="M76.8603 40.5528C77.016 40.774 77.3531 40.8892 77.5947 40.7406C77.6128 40.7295 77.6115 40.7154 77.5883 40.7167C77.3724 40.7272 77.1757 40.6644 77.0457 40.4798C77.0142 40.4351 76.823 40.4999 76.8603 40.5528Z" fill="#CC6144"/>
<path d="M75.3324 36.1567C75.3085 36.3269 75.3135 36.4637 75.4083 36.6122C75.4896 36.7392 75.5939 36.8328 75.7419 36.8617C75.7585 36.8649 75.845 36.8468 75.8242 36.8175C75.7443 36.7041 75.6229 36.6399 75.553 36.5128C75.4904 36.3993 75.4336 36.2666 75.4252 36.1367C75.4238 36.1124 75.3357 36.1338 75.3324 36.1567Z" fill="#CC6144"/>
<path d="M80.2652 37.1947C80.2809 37.1947 80.3191 37.1709 80.286 37.1709C80.27 37.1709 80.2319 37.1947 80.2652 37.1947Z" fill="#CC6144"/>
<path d="M80.4968 37.1502C80.6318 37.0793 80.8248 36.8705 80.6962 36.7135C80.6861 36.7014 80.6476 36.7161 80.6423 36.7282C80.5779 36.8768 80.5649 37.0361 80.4067 37.1192C80.317 37.1662 80.455 37.1723 80.4968 37.1502Z" fill="#CC6144"/>
<path d="M80.2891 62.3819C80.3475 61.4907 80.7473 60.7936 81.2831 60.1037C81.6988 59.5686 82.2174 59.2222 82.6941 58.7613C82.746 58.7112 82.6927 58.6161 82.6238 58.638C81.9285 58.8593 81.3653 59.5806 80.949 60.1559C80.5129 60.7588 79.9078 61.6086 80.1753 62.3976C80.1969 62.461 80.2847 62.4493 80.2891 62.3819Z" fill="#872E2E"/>
<path d="M80.1893 62.9123C80.4099 62.6385 80.5492 62.3034 80.7429 62.009C80.9723 61.66 81.239 61.3358 81.5332 61.042C81.5902 60.9852 82.1357 60.4171 82.1886 60.8729C82.2222 61.1612 81.6573 61.2695 81.4913 61.3721C81.3046 61.4877 81.1787 61.5786 81.1783 61.8128C81.1781 61.8887 81.2888 61.9261 81.3244 61.8531C81.5462 61.3981 82.3467 61.4134 82.431 60.8037C82.465 60.5588 82.2718 60.4024 82.0374 60.4274C81.616 60.4725 81.1768 61.0993 80.9406 61.3994C80.6103 61.8193 80.2214 62.3409 80.1428 62.8846C80.1395 62.9092 80.1696 62.9371 80.1893 62.9123Z" fill="#872E2E"/>
<path d="M72.0183 73.9779C72.02 74.7037 72.0074 75.4058 71.758 76.0968C71.5099 76.7847 71.0592 77.3095 70.6417 77.8909C70.61 77.935 70.6701 77.9847 70.7111 77.9617C71.9294 77.2734 72.5461 75.2789 72.1297 73.9626C72.1105 73.9019 72.0181 73.9107 72.0183 73.9779Z" fill="#874C2E"/>
<path d="M77.4429 67.2995C77.2682 68.4186 77.0653 69.4367 76.4988 70.432C75.9358 71.421 75.1325 72.2794 74.1911 72.9003C74.1158 72.95 74.1829 73.0692 74.2617 73.0235C76.148 71.9271 77.7364 69.6208 77.6063 67.322C77.6014 67.2326 77.4584 67.1996 77.4429 67.2995Z" fill="#872E2E"/>
<path d="M83.6241 38.8294C83.8611 38.7305 84.1657 38.6365 84.3161 38.4118C84.3391 38.3772 84.3081 38.3333 84.2712 38.3322C84.0126 38.3247 83.7607 38.5182 83.5506 38.6516C83.4636 38.707 83.52 38.8728 83.6241 38.8294Z" fill="#874C2E"/>
<path d="M83.6534 39.4567C83.7965 39.557 84.0304 39.6494 84.1942 39.547C84.2417 39.5174 84.2436 39.4443 84.1942 39.4152C84.1269 39.3755 84.0461 39.3655 83.9712 39.3468C83.8895 39.3266 83.8092 39.3004 83.7316 39.2677C83.6193 39.2209 83.565 39.3946 83.6534 39.4567Z" fill="#874C2E"/>
<path d="M83.4383 40.6492C83.5776 40.734 83.7636 40.8697 83.934 40.8582C83.9751 40.8555 84.0068 40.8108 83.9829 40.7711C83.893 40.6219 83.6839 40.5483 83.5346 40.4813C83.4249 40.4322 83.3302 40.5835 83.4383 40.6492Z" fill="#874C2E"/>
<path d="M9.53516 80.7158H15.1116H24.4929H28.4005H38.2592H110.727H114.336H117.396" stroke="black" stroke-width="2.1886" stroke-miterlimit="10" stroke-linecap="round"/>
<path d="M8.16941 80.7168H2.125" stroke="black" stroke-width="2.1886" stroke-miterlimit="10" stroke-linecap="round"/>
<path d="M119.279 80.7168H118.266" stroke="black" stroke-width="2.1886" stroke-miterlimit="10" stroke-linecap="round"/>
<path d="M105.274 79.4482H71.1162C70.7861 79.4482 70.5176 79.7221 70.5176 80.0587V80.1031C70.5176 80.4397 70.7861 80.7136 71.1162 80.7136H105.274C105.604 80.7136 105.872 80.4397 105.872 80.1031V80.0587C105.872 79.7219 105.604 79.4482 105.274 79.4482Z" fill="#2D2442"/>
<path d="M111.941 63.9317C104.834 63.8584 97.7261 63.7852 90.6187 63.712C89.6094 63.7015 88.6001 63.6912 87.5907 63.6807C87.4339 63.679 87.2317 63.7739 87.1656 63.9293C85.2128 68.5273 83.2598 73.1251 81.307 77.7231C81.0284 78.3792 80.7496 79.0354 80.471 79.6916C80.4617 79.7134 80.4568 79.735 80.4504 79.7566C80.4502 79.757 80.45 79.7576 80.45 79.7576C80.4438 79.7788 80.4378 79.8 80.4343 79.821C80.3784 80.0871 80.5111 80.3998 80.8323 80.4398C80.907 80.4621 80.9835 80.4669 81.0556 80.448C88.3607 80.5061 95.6659 80.5645 102.971 80.6226C104.014 80.631 105.057 80.6392 106.1 80.6476C106.332 80.6495 106.497 80.4873 106.574 80.2791C108.521 75.0417 110.468 69.8044 112.416 64.567C112.532 64.2542 112.236 63.9348 111.941 63.9317Z" fill="#2D2442"/>
<path d="M111.938 63.5874C105.377 63.5198 98.8161 63.4521 92.2554 63.3845C91.4564 63.3763 90.6574 63.3681 89.8581 63.3597C89.1353 63.3524 88.3 63.2231 87.5872 63.3362C86.5283 63.5043 86.2563 65.2015 85.8941 66.0545C84.5922 69.1198 83.2902 72.1851 81.9883 75.2502C81.4307 76.5634 80.8714 77.8757 80.3152 79.1895C80.1053 79.6851 79.9005 80.2849 80.453 80.6611C80.7321 80.851 81.1553 80.7916 81.4582 80.7958C82.2698 80.8071 83.0816 80.8088 83.8934 80.8151C85.5167 80.8281 87.1401 80.8409 88.7634 80.8539C92.0101 80.8797 95.2568 80.9058 98.5035 80.9316C100.122 80.9444 101.74 80.9574 103.359 80.9702C104.01 80.9754 104.662 80.9805 105.314 80.9857C105.817 80.9897 106.315 81.0879 106.704 80.711C107.125 80.3027 107.268 79.3721 107.466 78.8376C107.751 78.0711 108.036 77.3047 108.321 76.5382C108.986 74.7497 109.651 72.9615 110.316 71.1731C110.933 69.5124 111.551 67.8517 112.168 66.1913C112.477 65.3597 113.338 63.9443 112.027 63.5994C111.606 63.4886 111.426 64.1527 111.848 64.2637C112.279 64.3772 110.808 67.9128 110.662 68.3077C110.187 69.5852 109.712 70.8625 109.237 72.14C108.762 73.4175 108.287 74.6948 107.812 75.9723C107.598 76.547 107.385 77.122 107.171 77.6967C106.938 78.3233 106.77 79.251 106.387 79.8043C105.895 80.5172 104.869 80.2935 104.141 80.2876C103.479 80.2823 102.817 80.2771 102.156 80.2718C100.803 80.2611 99.4501 80.2502 98.0971 80.2395C95.3916 80.2179 92.6859 80.1965 89.9804 80.1749C87.2749 80.1533 84.5691 80.1319 81.8636 80.1103C81.5838 80.108 81.1099 80.2303 80.9119 79.9766C80.6596 79.6532 80.802 80.1201 80.8981 79.5374C80.9782 79.0523 81.3337 78.5119 81.5251 78.061C82.0908 76.7291 82.6565 75.3973 83.2221 74.0655C84.307 71.5111 85.392 68.9567 86.4769 66.4024C86.7176 65.8356 86.9119 64.9474 87.2905 64.4866C87.7969 63.8703 88.5988 64.0358 89.2898 64.043C90.6882 64.0574 92.0865 64.0717 93.4849 64.0862C99.6357 64.1496 105.786 64.2129 111.937 64.2763C112.373 64.2807 112.373 63.5918 111.938 63.5874Z" fill="#2D2442"/>
<path d="M95.5754 73.9043C96.4853 73.9043 97.223 73.356 97.223 72.6797C97.223 72.0034 96.4853 71.4551 95.5754 71.4551C94.6654 71.4551 93.9277 72.0034 93.9277 72.6797C93.9277 73.356 94.6654 73.9043 95.5754 73.9043Z" fill="#5A4F72"/>
<path d="M98.7462 73.4439C99.2209 73.4439 99.6058 73.1579 99.6058 72.805C99.6058 72.4521 99.2209 72.166 98.7462 72.166C98.2715 72.166 97.8867 72.4521 97.8867 72.805C97.8867 73.1579 98.2715 73.4439 98.7462 73.4439Z" fill="#5A4F72"/>
<path d="M58.4579 76.2348C59.5094 76.1062 61.3714 75.8183 61.4183 75.1581C60.7378 74.7097 59.9874 74.256 59.1781 74.2158C58.5325 74.1837 57.9062 74.4262 57.3154 74.694C56.8131 74.9217 56.3199 75.1705 55.8375 75.4397C55.6396 75.5501 55.1216 75.945 55.1134 76.2201C55.1031 76.562 55.7188 76.3599 55.963 76.3775C56.7966 76.4379 57.6315 76.336 58.4579 76.2348Z" fill="#C1ADA4"/>
<path d="M55.9746 75.6746C55.9746 75.6746 57.3731 80.3439 58.1132 80.4557C58.8536 80.5676 66.0921 80.6234 66.2841 80.5397C66.4761 80.4557 66.5035 80.316 66.5035 80.316C66.5035 80.316 71.1099 80.6236 71.192 80.5117C71.2741 80.3999 71.192 79.8407 70.9727 79.7567C70.7533 79.6728 63.7889 78.0791 63.1858 77.8554C62.5826 77.6317 60.6905 77.6877 60.6905 77.6877L60.3068 74.9756L55.9746 75.6746Z" fill="#FE8E68"/>
<path d="M57.6631 17.087C58.1166 17.5824 58.3627 18.2692 58.3291 18.9462C58.3092 19.3497 58.195 19.7417 58.076 20.1271C57.847 20.8691 57.5756 21.6378 57.0095 22.1594C56.9177 22.244 56.8025 22.3256 56.6809 22.3032C56.4539 21.5906 56.2269 20.8777 56.0002 20.1651C55.8911 19.8227 55.7817 19.4787 55.7203 19.1241C55.6164 18.5246 55.6541 17.897 55.8529 17.3231C55.9432 17.0625 56.073 16.8048 56.2887 16.6373C56.8144 16.2292 57.3058 16.6969 57.6631 17.087Z" fill="#433735"/>
<path d="M44.2532 56.5864C44.1797 57.3164 44.29 58.0876 44.3299 58.8176C44.3526 59.2324 44.3752 59.6485 44.3742 60.064C44.3735 60.3051 44.3036 60.5985 44.3847 60.8253C44.3933 60.8492 44.4273 60.8658 44.4464 60.8419C44.7627 60.4489 44.5834 59.5111 44.5688 59.0375C44.5437 58.2206 44.5059 57.4031 44.4748 56.5864C44.4692 56.4386 44.2676 56.4439 44.2532 56.5864Z" fill="#9B8580"/>
<path d="M46.2899 55.1468C45.5287 56.9099 45.1059 58.704 44.0626 60.3518C44.0035 60.4452 44.15 60.5321 44.2085 60.4387C45.131 58.9608 46.1347 56.9327 46.3769 55.1842C46.3833 55.1357 46.3138 55.0914 46.2899 55.1468Z" fill="#9B8580"/>
<path d="M29.558 80.7154L30.0263 64.5844L33.4648 80.7154H43.3253C42.6701 75.349 39.7629 52.9194 36.7253 51.0181L24.791 43.4404C24.791 43.4404 17.8848 45.2774 18.0356 55.4566C18.5873 65.2615 19.7627 76.8001 20.1771 80.7152H29.558V80.7154Z" fill="#2D2442"/>
<path d="M61.393 75.1739C61.1368 75.5697 59.8337 75.2724 59.4482 75.3105C59.1036 75.3447 58.7768 75.4778 58.4418 75.5668C57.3751 75.8505 56.1836 75.7015 55.2245 76.2559C55.1947 76.2731 55.1607 76.2915 55.1278 76.2815C55.0916 76.2701 55.0741 76.2294 55.0611 76.1931C54.4488 74.4634 53.9699 72.6584 53.4337 70.8958C52.6279 68.247 51.8218 65.5982 51.016 62.9494C50.5998 61.5813 50.1835 60.2129 49.7672 58.8448L46.8398 45.0099L48.1414 35.2577L48.4498 32.9568L48.4723 32.7822C48.4723 32.7822 48.5352 32.8051 48.6523 32.8464C49.0599 32.9933 50.1069 33.3929 51.2667 33.9693C53.1244 34.8947 55.2725 36.2817 55.5653 37.8523C55.5661 37.8578 55.5667 37.8632 55.5675 37.8687C55.7223 38.9695 55.896 40.0678 56.0655 41.1663C56.3664 43.1151 56.6711 45.0632 56.9767 47.0114C57.3568 49.4352 57.7387 51.8588 58.1212 54.2825C58.5198 56.8079 58.9192 59.333 59.3192 61.8582C59.676 64.1115 60.0335 66.3647 60.3911 68.6178C60.6463 70.2251 60.9016 71.8325 61.1572 73.4398C61.228 73.8845 61.2986 74.3291 61.3694 74.7738C61.3819 74.852 61.4471 75.034 61.4228 75.1101C61.4156 75.1332 61.4058 75.1544 61.393 75.1739Z" fill="#EED9CE"/>
<path d="M48.472 32.7821L48.4496 32.9566L48.1411 35.2575L46.8396 45.0097L40.4695 49.012C40.1367 49.221 39.8503 50.658 39.7149 51.0178C39.2751 52.1871 38.8912 53.4012 38.3885 54.5435C38.2854 54.7777 38.193 55.4152 37.9646 55.5577C37.5053 55.8441 35.6381 55.4513 35.0615 55.4135C32.9266 55.2736 30.7689 54.954 28.8163 54.0156C27.2726 53.2738 25.9054 52.2242 24.4524 51.3236C23.5645 50.7732 22.5745 50.4294 21.6348 49.9871C21.0071 49.6917 19.6507 49.1251 19.4089 48.3722C19.3391 48.1548 19.4472 47.924 19.5501 47.7209C19.9986 46.8347 20.297 45.7671 20.8269 44.9445C21.3154 44.1859 21.9171 43.5019 22.3934 42.7248C23.3521 41.1613 24.1983 39.5097 25.3957 38.1147C27.4339 35.7399 29.1465 33.0265 31.2463 30.6585C32.1784 29.6068 35.0833 28.6057 36.4725 28.5482C37.7358 28.4953 38.9607 28.7066 40.0326 29.0119C40.895 29.2599 41.6607 29.5676 42.264 29.8454C43.149 30.2541 43.6871 30.6008 43.6871 30.6008L48.472 32.7821Z" fill="#EED9CE"/>
<path d="M50.8262 45.7551C51.497 45.3344 54.6314 43.2944 54.912 42.5572C55.0423 42.2152 55.7536 41.1618 56.3677 40.1737C56.7313 39.5888 57.6521 38.4412 57.8846 38.1955C58.2832 37.7739 58.859 36.7296 59.2065 37.0731C59.6397 37.5012 58.9633 38.572 58.582 39.2288C58.4421 39.4699 58.2917 39.7118 58.2312 39.9848C58.1707 40.258 58.1842 40.4616 58.3412 40.6913C58.4268 40.8164 59.0127 40.876 59.2092 40.8674C60.6895 40.8011 61.3318 40.8898 62.436 40.4706C63.5401 40.0513 64.5717 39.4594 65.6131 38.8976C65.7917 38.8013 65.9 38.6039 66.3029 38.5659C66.5039 38.547 66.9292 38.5749 66.9068 38.7795C66.8891 38.9388 65.6454 39.9294 65.5172 40.0222C64.8279 40.5216 64.9054 40.4653 64.2161 40.965C64.1089 41.0426 63.9937 41.1326 63.9673 41.2638C63.9453 41.3739 63.9922 41.4856 63.9945 41.598C63.9984 41.7991 63.862 41.9718 63.7276 42.1193C63.492 42.378 63.2409 42.6195 62.9792 42.8485C62.6127 43.1685 62.9119 43.4415 62.5127 43.7224C62.0725 44.0322 60.9315 44.3471 60.4805 44.6382C60.1195 44.8713 59.7564 45.1055 59.36 45.2673C58.8851 45.4609 58.3758 45.5455 57.8748 45.6509C56.5016 45.9398 54.099 48.4767 52.9374 49.3146" fill="#FE8E68"/>
<path d="M58.709 45.4662C58.709 45.4662 60.4346 45.2436 61.8073 44.5927C63.1805 43.9416 66.573 41.8069 66.573 41.8069C66.573 41.8069 66.62 41.6854 66.584 41.6008C66.5479 41.5163 66.0325 41.399 65.6172 41.583C65.202 41.767 62.5436 42.9438 62.5436 42.9438" fill="#FE8E68"/>
<path d="M58.3672 44.8751C58.3672 44.8751 60.5537 44.4101 61.9267 43.759C63.2996 43.1081 66.6924 40.9732 66.6924 40.9732C66.6924 40.9732 66.7393 40.8517 66.7033 40.7669C66.6673 40.6821 66.152 40.565 65.7366 40.7491C65.3211 40.9329 62.6629 42.1099 62.6629 42.1099" fill="#FE8E68"/>
<path d="M59.0566 43.5926C59.0566 43.5926 61.243 43.1274 62.6161 42.4765C63.989 41.8255 66.1211 40.713 67.3288 39.8724C67.4084 39.817 67.429 39.5691 67.393 39.4846C67.3569 39.3998 66.8415 39.2829 66.4262 39.4667C66.011 39.6506 63.3526 40.8273 63.3526 40.8273" fill="#FE8E68"/>
<path d="M50.9496 30.2379C50.9496 30.2379 56.2413 33.5293 57.4796 26.87C57.7799 24.1147 58.1552 19.6369 55.9034 17.886C53.6516 16.1351 48.4725 15.9343 48.3599 21.1295C48.5569 22.6221 48.5007 22.7369 48.5007 22.7369C48.5007 22.7369 46.5586 22.1915 46.9808 24.66C47.206 25.7795 47.4969 26.1813 47.4969 26.1813C47.4969 26.1813 43.523 29.3545 43.5189 29.3579C43.1532 29.65 42.8468 30.1364 42.3398 29.9018C42.2845 29.8762 42.2307 29.8437 42.1707 29.8336C42.1106 29.8235 42.0404 29.8422 42.0112 29.8965C41.9927 29.9309 41.9941 29.9725 41.9929 30.0117C41.9875 30.21 41.911 30.398 41.8589 30.589C41.6587 31.3222 41.8663 32.0083 42.2447 32.6404C42.5666 33.178 43.0217 33.6342 43.5617 33.9416C44.0782 34.2356 44.6581 34.3955 45.24 34.5029C45.9719 34.638 46.7489 34.6901 47.4735 34.4846C47.9175 34.3587 48.2198 34.2177 48.5299 33.8503C48.5879 33.7815 48.6429 33.7091 48.6822 33.6277C48.7711 33.4438 48.7742 33.2304 48.7725 33.0254C48.7723 32.9969 48.7711 32.9658 48.7526 32.9444C48.7332 32.922 48.7015 32.9174 48.6727 32.9125C48.3501 32.8569 48.5628 32.6847 48.698 32.5405C48.832 32.3978 48.9672 32.2562 49.1028 32.1151C49.3874 31.8189 49.6744 31.5251 49.9625 31.2322C50.2903 30.8991 50.6189 30.5674 50.9496 30.2379Z" fill="#FE8E68"/>
<path d="M54.8909 24.7403C55.097 24.7403 55.2641 24.4041 55.2641 23.9893C55.2641 23.5745 55.097 23.2383 54.8909 23.2383C54.6847 23.2383 54.5176 23.5745 54.5176 23.9893C54.5176 24.4041 54.6847 24.7403 54.8909 24.7403Z" fill="#56211A"/>
<path d="M55.6988 21.4047C54.8913 21.1021 53.4999 21.427 52.9889 22.161C52.9542 22.2111 53.0128 22.2923 53.0704 22.269C53.476 22.1051 53.8159 21.8414 54.2458 21.717C54.7269 21.5776 55.1854 21.6169 55.6739 21.5931C55.7825 21.5879 55.7978 21.4419 55.6988 21.4047Z" fill="#433735"/>
<path d="M57.676 23.3027C57.5544 23.7018 57.6769 24.157 57.8355 24.5422C57.9942 24.9275 58.238 25.2691 58.4798 25.6068C58.5884 25.7587 58.6973 25.9106 58.8059 26.0625C58.4654 26.1779 58.1337 26.3204 57.8149 26.4883C57.6234 26.5892 57.417 26.726 57.3789 26.9426" fill="#FE8E68"/>
<path d="M55.2383 27.3461C55.4661 27.4256 55.7116 27.4531 55.9507 27.4229C55.9745 27.42 56.0025 27.4179 56.0188 27.4361C56.0291 27.4479 56.0311 27.4647 56.0322 27.4804C56.048 27.7211 55.9468 27.9519 55.8478 28.171C55.7813 28.3181 55.7134 28.4675 55.6089 28.5896C55.3895 28.8456 54.8971 29.008 54.5841 28.8519C54.4436 28.7818 54.3401 28.6519 54.2594 28.5151C54.0399 28.1433 53.8851 27.5142 54.0715 27.0947C54.196 26.8144 54.2285 26.918 54.4703 27.0314C54.694 27.1361 54.9267 27.2196 55.1537 27.3136C55.1815 27.3253 55.2097 27.336 55.2383 27.3461Z" fill="#FFFBF9"/>
<path d="M51.1377 44.5879C47.2772 46.416 41.2675 49.7161 41.2675 49.7161L40.4043 43.3633L31.3223 43.4399C31.3223 43.4399 33.9494 58.2123 35.9758 59.5901C35.9758 59.5901 38.3776 61.427 42.2808 58.6716C44.8564 56.8534 50.8492 52.0716 53.793 49.458L51.1377 44.5879Z" fill="#EED9CE"/>
<path d="M34.0761 55.2964C34.0173 54.281 33.5454 53.1796 33.2919 52.1982C32.932 50.8042 32.5711 49.4109 32.2349 48.0109C31.6272 45.4813 31.1093 42.9368 30.5671 40.3931C30.5512 40.319 30.4296 40.3339 30.4358 40.4112C30.6376 42.947 31.2949 45.485 31.8931 47.9471C32.2231 49.3047 32.5622 50.6613 32.9351 52.0074C33.223 53.047 33.4267 54.3931 33.9776 55.3235C34.0037 55.3674 34.0794 55.3516 34.0761 55.2964Z" fill="#DBC4BD"/>
<path d="M53.5703 49.1248C51.6846 50.3932 50.0047 52.0566 48.4589 53.7251C48.3237 53.8711 48.5394 54.0919 48.6754 53.9458C50.2477 52.2556 51.9846 50.8272 53.7302 49.3361C53.8446 49.2383 53.695 49.0408 53.5703 49.1248Z" fill="#DBC4BD"/>
<path d="M47.2696 46.6295C47.8922 46.534 48.5178 46.2083 49.0804 45.9267C49.5705 45.6814 50.216 45.4483 50.5391 44.985C50.5969 44.9021 50.5016 44.8203 50.4239 44.8322C49.8907 44.9143 49.3752 45.3564 48.8939 45.6017C48.3353 45.8865 47.7161 46.0959 47.1895 46.4362C47.0848 46.5038 47.157 46.6467 47.2696 46.6295Z" fill="#DBC4BD"/>
<path d="M42.105 29.7414C41.4074 29.0101 40.7238 30.313 40.5145 30.9066C39.954 32.496 40.2888 34.3895 40.7423 35.9581C41.2944 37.8674 42.2179 39.6149 42.7112 41.549C43.2729 43.7517 43.6868 45.9583 43.6022 48.2435C43.597 48.3845 43.8069 48.3824 43.816 48.2435C44.0082 45.2644 43.305 41.9328 42.2151 39.1768C41.6646 37.7847 41.0473 36.4468 40.7218 34.9735C40.5388 34.1455 40.423 33.2803 40.461 32.4299C40.4759 32.0968 41.0356 28.9243 41.9595 29.8898C42.0521 29.9867 42.1974 29.8384 42.105 29.7414Z" fill="#9B8580"/>
<path d="M49.0515 32.4837C49.2277 32.7834 49.4038 33.0828 49.58 33.3825C49.6151 33.5829 49.6503 33.7831 49.6853 33.9835C49.7034 34.2032 49.694 34.4281 49.6798 34.6476C49.6409 35.2461 49.4958 35.8336 49.4007 36.4241C49.2174 37.5635 49.075 38.7092 48.8844 39.8478C48.5171 42.0433 48.0251 44.2106 47.3296 46.3232C47.2911 46.4399 47.47 46.4883 47.5095 46.3738C48.4807 43.5489 49.01 40.615 49.4431 37.6615C49.6437 36.294 50.7876 33.031 48.981 32.3211C48.9081 32.2926 48.8388 32.3771 48.8581 32.4464C48.8639 32.467 48.8696 32.4875 48.8752 32.5081C48.9034 32.609 49.047 32.5861 49.0515 32.4837Z" fill="#9B8580"/>
<path d="M46.5497 59.5047C46.5512 59.3179 46.3851 59.1282 46.1933 59.1413C44.8955 59.23 43.5977 59.3188 42.2999 59.4075C42.1034 59.421 41.9492 59.5632 41.9435 59.771C41.8871 61.8091 41.9935 63.8706 41.8871 65.9056C41.8774 66.0913 42.0585 66.2833 42.2435 66.269C43.5226 66.1702 44.8029 66.0827 46.081 65.9709C46.0913 65.97 46.1003 65.9669 46.1102 65.9654C46.2559 65.9746 46.3948 65.8983 46.4246 65.7042C46.7325 63.7025 46.5347 61.5282 46.5497 59.5047Z" fill="#D6CED7"/>
<path d="M46.7899 23.823C46.2067 23.9036 45.7637 24.0458 45.3394 23.5005C45.1694 23.282 45.0324 23.0529 44.768 22.9513C44.734 22.9383 44.7073 22.9889 44.7328 23.0128C45.0622 23.3196 45.2991 23.8465 45.7326 24.0154C46.0759 24.1491 46.5006 24.0528 46.8183 23.8918C46.8595 23.871 46.8278 23.8177 46.7899 23.823Z" fill="#594C4A"/>
<path d="M54.7974 25.8926C55.7923 25.8926 56.5988 25.0702 56.5988 24.0557C56.5988 23.0412 55.7923 22.2188 54.7974 22.2188C53.8026 22.2188 52.9961 23.0412 52.9961 24.0557C52.9961 25.0702 53.8026 25.8926 54.7974 25.8926Z" stroke="#F9F9F9" stroke-width="1.0943" stroke-miterlimit="10"/>
<path d="M56.649 23.5743C56.7155 23.5348 56.7439 23.4717 56.8026 23.4211C56.8884 23.3468 57.0015 23.3051 57.111 23.2847C57.2127 23.2656 57.3203 23.2654 57.4174 23.304C57.5084 23.3403 57.5298 23.427 57.6125 23.4639C57.6355 23.4742 57.6565 23.4692 57.6715 23.4482C57.6781 23.439 57.6847 23.4297 57.6913 23.4205C57.7088 23.3959 57.7028 23.363 57.6913 23.3378C57.5857 23.1074 57.2847 23.0871 57.0703 23.1334C56.8873 23.1729 56.5585 23.3158 56.5923 23.5506C56.596 23.5766 56.6297 23.5858 56.649 23.5743Z" fill="#F9F9F9"/>
<path d="M46.7704 20.7652C47.6902 21.4408 53.4422 20.612 55.2987 19.7443C59.0728 17.9804 59.4424 14.8718 58.5606 14.2881C58.4543 14.2176 58.3359 14.1613 58.21 14.1458C57.9141 14.1093 57.6414 14.2967 57.4003 14.475C57.4951 14.1236 57.8378 12.592 56.9219 11.9845C55.6921 11.1688 54.1435 12.5481 53.8916 12.72C52.1368 13.9175 51.1888 14.1221 51.1888 14.1221C51.1888 14.1221 51.4981 11.1023 49.0728 13.4223C48.309 14.1529 46.8914 14.8343 46.1304 15.5681C45.3325 16.3374 44.8781 17.5951 45.3384 18.6695" fill="#433735"/>
<path d="M49.4682 18.9348C49.994 19.3715 50.2298 20.0709 50.3816 20.7449C50.6103 21.7597 50.7016 22.8399 50.3847 23.8297C50.2946 24.1111 50.4065 25.4111 50.1905 25.375C50.122 25.3637 49.9707 24.3676 49.7121 23.86C49.3116 23.0737 48.0381 22.9652 47.5741 23.5823C46.9993 24.3468 47.3687 24.8848 47.6241 25.6469C47.8136 26.2131 47.6265 26.9246 46.9475 27.1211C46.3147 27.3038 46.4964 26.8151 46.2441 26.3568C45.7017 25.3716 45.133 24.5092 44.7683 23.4115C44.1934 21.6806 43.7201 19.0536 45.4966 17.8544C45.9408 17.5543 47.4057 17.1886 47.9 17.3917" fill="#433735"/>
<path d="M55.0211 24.54C55.1104 24.54 55.1829 24.4436 55.1829 24.3247C55.1829 24.2058 55.1104 24.1094 55.0211 24.1094C54.9318 24.1094 54.8594 24.2058 54.8594 24.3247C54.8594 24.4436 54.9318 24.54 55.0211 24.54Z" fill="white"/>
<path d="M49.038 22.7971C49.3028 23.3296 49.9189 23.4348 50.4414 23.5684C51.1953 23.7611 52.0005 23.9132 52.7802 23.9103C52.9164 23.9098 52.9078 23.7168 52.7802 23.7004C52.1116 23.6148 51.4478 23.555 50.7873 23.4085C50.245 23.2883 49.5063 23.1821 49.1372 22.7188C49.0898 22.6594 49.0071 22.7352 49.038 22.7971Z" fill="#F9F9F9"/>
<path d="M49.8648 28.9149C50.1447 29.4611 50.5846 29.9987 51.132 30.2805C51.1571 30.2933 51.1836 30.2616 51.1626 30.24C50.7303 29.793 50.3013 29.3824 49.9335 28.8739C49.9037 28.8324 49.8405 28.8674 49.8648 28.9149Z" fill="#CC6144"/>
<path d="M60.6579 22.4377C60.9151 22.2663 61.1915 22.1049 61.3958 21.8669C61.4104 21.8499 61.3968 21.8151 61.3719 21.825C61.0843 21.9385 60.8421 22.1443 60.5968 22.3309C60.5355 22.3773 60.591 22.4822 60.6579 22.4377Z" fill="#433735"/>
<path d="M61.0323 23.1693C61.2249 23.1273 61.4693 23.0816 61.6329 22.9656C61.6759 22.9349 61.6601 22.8684 61.6064 22.8653C61.407 22.8537 61.1755 22.945 60.9897 23.0119C60.8928 23.047 60.9308 23.1916 61.0323 23.1693Z" fill="#433735"/>
<path d="M61.0984 24.0683C61.2186 24.0353 61.3379 24.007 61.4618 23.9929C61.5626 23.9814 61.6661 23.9822 61.7649 23.9592C61.7939 23.9524 61.8015 23.9057 61.7735 23.892C61.56 23.7867 61.2713 23.8379 61.0597 23.9247C60.9747 23.9596 61.0052 24.0939 61.0984 24.0683Z" fill="#433735"/>
<path d="M23.0355 50.9319C22.5112 50.9149 22.5324 51.7496 22.4842 52.1072C22.4188 52.5915 22.2854 53.217 22.6939 53.5834C22.7645 53.6468 22.8591 53.6 22.8686 53.5095C22.8711 53.4869 22.8733 53.4642 22.8758 53.4416C22.8812 53.3897 22.8217 53.3721 22.7851 53.3885C22.7616 53.3988 22.7381 53.409 22.7147 53.4195C22.7614 53.4319 22.8081 53.4445 22.8548 53.4569C22.6147 53.084 22.6408 52.7218 22.6931 52.3005C22.7456 51.8764 22.7157 51.3132 23.0727 51.023C23.1102 50.9923 23.0766 50.9332 23.0355 50.9319Z" fill="black"/>
<path d="M23.6315 51.3406C23.3048 51.891 23.2259 52.9116 23.4922 53.4975C23.5237 53.567 23.6223 53.5271 23.6249 53.4608C23.6391 53.1078 23.5552 52.762 23.5758 52.4053C23.5961 52.053 23.697 51.7166 23.7272 51.367C23.7319 51.3131 23.6562 51.299 23.6315 51.3406Z" fill="black"/>
<path d="M33.7681 55.7791C33.6988 55.9976 33.6329 56.2181 33.5381 56.4269C33.451 56.6183 33.3195 56.7857 33.2372 56.9777C33.1985 57.0679 33.2967 57.1569 33.3745 57.0858C33.6949 56.7928 33.8714 56.2233 33.9025 55.7978C33.9085 55.7162 33.791 55.7073 33.7681 55.7791Z" fill="black"/>
<path d="M34.2234 56.5277C34.1582 56.7686 34.0504 56.9684 33.9415 57.1893C33.8952 57.2833 34.0226 57.4038 34.0944 57.3096C34.258 57.0951 34.3341 56.8135 34.3527 56.5455C34.358 56.4689 34.2428 56.4561 34.2234 56.5277Z" fill="black"/>
<path d="M18.6412 50.9029C19.2904 51.3016 19.9709 51.6384 20.6168 52.0528C21.1809 52.4148 21.7731 52.7539 22.4433 52.8448C22.5419 52.8582 22.5633 52.6893 22.4667 52.6679C21.6883 52.4946 21.0516 52.1129 20.3876 51.6791C19.8779 51.3461 19.2812 50.8891 18.6566 50.8448C18.6254 50.8425 18.6165 50.8876 18.6412 50.9029Z" fill="black"/>
<path d="M23.5604 52.9787C25.2026 53.8465 26.7527 54.9205 28.4351 55.7042C29.2058 56.0631 30.0143 56.3134 30.8437 56.4861C31.6296 56.6498 32.5599 56.8726 33.3593 56.7849C33.4406 56.7761 33.4711 56.6531 33.3799 56.6296C32.5233 56.4097 31.5948 56.429 30.7233 56.2351C29.8486 56.0406 29.0111 55.7519 28.2067 55.3502C26.6517 54.5738 25.2366 53.4789 23.6165 52.8425C23.5394 52.8123 23.4875 52.94 23.5604 52.9787Z" fill="black"/>
<path d="M31.0028 64.9125C31.2637 64.6049 31.5304 64.2998 31.8325 64.0331C32.0033 63.8822 32.8768 63.0905 33.1445 63.3556C33.17 63.3807 33.218 63.3558 33.2062 63.3188C33.0725 62.8983 32.4879 63.3325 32.2932 63.4634C31.7506 63.8281 31.2734 64.2918 30.939 64.8624C30.916 64.9018 30.9721 64.9488 31.0028 64.9125Z" fill="black"/>
<path d="M29.0447 64.6666C28.243 63.8572 27.1747 63.2926 26.0341 63.2451C26.0018 63.2439 25.9946 63.2955 26.0264 63.3028C27.1292 63.5593 28.1039 63.9815 28.9554 64.7574C29.0157 64.8124 29.103 64.7253 29.0447 64.6666Z" fill="black"/>
<path d="M30.9204 65.4486C31.9017 65.8016 32.6722 66.4252 32.8973 67.5096C32.9464 67.471 32.9956 67.4324 33.045 67.3938C32.7909 67.2276 32.5724 67.0222 32.3861 66.7805C32.2538 66.6086 32.1592 66.3788 32.0054 66.2265C31.8375 66.0603 31.5713 66.0045 31.3717 66.1365C31.3603 66.144 31.3673 66.1652 31.3813 66.16C31.8266 65.9921 32.0795 66.6953 32.2886 66.9584C32.4789 67.1978 32.7022 67.3886 32.9436 67.5711C33.0205 67.6293 33.1067 67.5336 33.0913 67.4553C32.8882 66.425 32.0166 65.3997 30.9356 65.3351C30.8681 65.3309 30.863 65.4278 30.9204 65.4486Z" fill="black"/>
<path d="M18.5243 57.7198C19.5289 57.0865 20.4454 56.3086 20.9953 55.2229C21.0634 55.0886 20.8644 54.9694 20.7961 55.1041C20.2633 56.156 19.381 56.9031 18.4079 57.5166C18.2819 57.5962 18.3976 57.7997 18.5243 57.7198Z" fill="black"/>
<path d="M30.5283 56.5281C30.5976 57.5876 30.7513 58.6225 30.7297 59.6893C30.7071 60.8077 30.5678 61.9186 30.3284 63.01C30.3056 63.1137 30.4618 63.1579 30.4848 63.0541C30.7221 61.9795 30.8649 60.8904 30.8923 59.7886C30.9188 58.7152 30.8991 57.5573 30.6149 56.5161C30.6019 56.4685 30.5248 56.4761 30.5283 56.5281Z" fill="black"/>
<path d="M30.3434 63.4705C30.2454 63.6384 30.2282 63.8581 30.1924 64.0482C30.1607 64.2163 30.0958 64.4081 30.1494 64.5747C30.1596 64.6068 30.1987 64.6106 30.2168 64.5837C30.3179 64.4347 30.3131 64.223 30.3446 64.0476C30.3769 63.8675 30.4444 63.6778 30.4306 63.4946C30.4274 63.4489 30.3685 63.4277 30.3434 63.4705Z" fill="black"/>
<path d="M31.9901 56.6432C31.9619 57.4802 31.9936 58.3219 32.0014 59.1594C32.0088 59.9412 32.0804 60.7527 32.003 61.5316C31.8757 62.8147 30.6505 63.468 30.1922 64.5954C30.1616 64.6708 30.2891 64.7262 30.3223 64.6515C30.8044 63.5649 31.9872 62.956 32.1788 61.7169C32.2965 60.9556 32.2043 60.137 32.1917 59.3694C32.1769 58.4623 32.1882 57.5493 32.1341 56.6436C32.1286 56.5492 31.9932 56.5479 31.9901 56.6432Z" fill="black"/>
<path d="M41.3126 32.484C41.2954 34.0493 42.9121 35.0371 44.2931 35.1751C44.403 35.186 44.4081 35.0249 44.3176 34.9907C43.6696 34.7466 43.0123 34.622 42.4395 34.1971C41.8915 33.7906 41.4878 33.1802 41.411 32.484C41.4042 32.4212 41.3135 32.4176 41.3126 32.484Z" fill="#C1ADA4"/>
<path d="M45.1487 35.164C45.3656 35.2129 45.5839 35.2097 45.8049 35.2131C46.0292 35.2164 46.243 35.225 46.457 35.1486C46.5074 35.1306 46.5074 35.0622 46.457 35.0441C46.243 34.9678 46.0292 34.9762 45.8049 34.9797C45.5839 34.9831 45.3654 34.9799 45.1487 35.0288C45.0833 35.0435 45.0833 35.1493 45.1487 35.164Z" fill="#C1ADA4"/>
<path d="M30.4365 40.8369C30.3986 40.4468 30.2813 40.1104 30.0249 39.8133C29.8282 39.5852 29.4165 39.2463 29.0983 39.3292C29.043 39.3437 29.0164 39.4257 29.063 39.4662C29.1714 39.5604 29.299 39.5772 29.4272 39.6389C29.5829 39.714 29.7235 39.8171 29.8492 39.9369C30.1007 40.1765 30.2949 40.5015 30.3527 40.8486C30.3604 40.8965 30.4412 40.8858 30.4365 40.8369Z" fill="#C1ADA4"/>
<path d="M49.3488 25.283C49.5167 24.7206 48.9564 23.5856 48.281 23.8259C48.0833 23.8962 48.2098 23.9942 48.3644 23.9512C48.5288 23.9054 48.8479 24.464 48.8975 24.5603C49.023 24.8042 49.0442 25.082 49.1642 25.3229C49.1893 25.373 49.3352 25.329 49.3488 25.283Z" fill="#CC6144"/>
<path d="M48.945 24.47C48.9396 24.2827 48.7742 24.1859 48.6034 24.2044C48.5128 24.2142 48.4139 24.2453 48.341 24.3026C48.2974 24.337 48.2377 24.4119 48.2848 24.4614C48.3108 24.4887 48.3815 24.4585 48.4048 24.4417C48.4719 24.3941 48.5077 24.3143 48.5857 24.3488C48.6589 24.3811 48.7116 24.4512 48.7353 24.5271C48.754 24.5878 48.9468 24.5317 48.945 24.47Z" fill="#CC6144"/>
<path d="M54.3751 24.4746C54.4044 24.6855 54.5466 24.8236 54.7597 24.8164C54.7682 24.8162 54.8297 24.7999 54.8116 24.7837C54.7591 24.7367 54.6943 24.708 54.641 24.6597C54.5782 24.603 54.5122 24.525 54.4799 24.4461C54.4682 24.4171 54.3708 24.4436 54.3751 24.4746Z" fill="#CC6144"/>
<path d="M39.9981 38.7334C40.0738 40.9436 40.3389 43.1436 40.6164 45.3355C40.7588 46.4601 40.8191 47.7487 41.1249 48.8063C41.1574 48.9189 41.3072 48.8688 41.2924 48.7593C41.2922 48.7578 41.292 48.7565 41.2918 48.7551C41.2766 48.6426 41.1093 48.6904 41.1243 48.8021C41.1245 48.8035 41.1247 48.8048 41.1249 48.8063C41.1807 48.7905 41.2367 48.7748 41.2924 48.7593C41.3072 48.8107 41.2963 48.5736 41.2918 48.5184C41.2731 48.2928 41.2301 48.0674 41.1988 47.8433C41.0786 46.9859 40.9644 46.1275 40.8556 45.2684C40.5802 43.0949 40.3354 40.9155 40.1358 38.7332C40.1275 38.6453 39.995 38.6419 39.9981 38.7334Z" fill="#C1ADA4"/>
<path d="M43.7253 48.3821C42.8787 48.5707 42.0945 48.9642 41.3101 49.3406C40.4996 49.7294 39.6621 50.0971 38.9233 50.6183C38.8705 50.6557 38.9009 50.7505 38.9692 50.7295C40.6442 50.215 42.1711 49.1912 43.7662 48.4811C43.8238 48.4555 43.781 48.3697 43.7253 48.3821Z" fill="#C1ADA4"/>
<path d="M58.2968 57.6618C58.0721 58.4808 58.0223 59.2846 57.6867 60.0822C57.3325 60.9243 56.8099 61.5771 56.2563 62.2866C56.1888 62.373 56.2907 62.479 56.3755 62.4081C57.0525 61.8411 57.5523 60.9822 57.8941 60.1714C58.2048 59.4338 58.5233 58.4753 58.3968 57.6618C58.3886 57.608 58.3098 57.615 58.2968 57.6618Z" fill="#C1ADA4"/>
<path d="M22.4048 50.2017C22.2145 49.5399 22.0641 48.8524 22.0509 48.1606C22.0375 47.4492 22.2182 46.7987 22.3244 46.1059C22.3375 46.0196 22.2221 45.9514 22.1752 46.0416C21.5369 47.265 21.7079 49.049 22.2768 50.2569C22.3116 50.3303 22.4268 50.2785 22.4048 50.2017Z" fill="#C1ADA4"/>
<path d="M24.2522 51.1159C24.0936 50.6964 23.9156 50.2814 23.7981 49.847C23.754 49.6842 23.5682 49.1657 23.6645 49.0425C24.043 48.8639 24.2485 48.9499 24.2812 49.3006C24.3061 49.4504 24.3162 49.6013 24.3115 49.7528C24.3117 49.8229 24.4179 49.8409 24.4337 49.7696C24.5173 49.3931 24.1928 48.1299 23.611 48.5976C23.3581 48.801 23.4892 49.3128 23.5439 49.5734C23.6604 50.1282 23.9199 50.6467 24.1384 51.1646C24.1662 51.23 24.2777 51.183 24.2522 51.1159Z" fill="#C1ADA4"/>
<path d="M28.1803 53.6017C27.7418 52.8809 27.5446 52.158 27.3203 51.3543C27.307 51.3062 27.2382 51.3169 27.2364 51.3658C27.2026 52.1928 27.5988 53.038 28.099 53.6657C28.1362 53.7127 28.2109 53.652 28.1803 53.6017Z" fill="#C1ADA4"/>
<path d="M31.696 55.0001C32.3084 54.9438 33.1212 54.4774 33.2212 53.791C33.2299 53.732 33.1589 53.6684 33.1107 53.7253C32.9196 53.9515 32.7854 54.2094 32.557 54.4062C32.307 54.6217 31.9928 54.7764 31.6781 54.8647C31.6074 54.8849 31.6183 55.0072 31.696 55.0001Z" fill="#C1ADA4"/>
<path d="M31.7124 54.2999C32.1118 54.1601 32.6049 53.7984 32.6763 53.3396C32.6849 53.2845 32.6168 53.2238 32.5724 53.278C32.4386 53.4402 32.3425 53.6254 32.1925 53.7759C32.0365 53.9324 31.8478 54.0546 31.6486 54.1452C31.563 54.1843 31.6237 54.3309 31.7124 54.2999Z" fill="#C1ADA4"/>
<path d="M54.2428 29.7991C54.4274 29.7211 54.556 29.8455 54.7272 29.8938C54.7455 29.899 54.7966 29.8927 54.8027 29.8688C54.8396 29.7278 54.6515 29.6795 54.5455 29.6692C54.4111 29.656 54.2648 29.6824 54.1572 29.7693C54.0967 29.8182 54.2194 29.8092 54.2428 29.7991Z" fill="#CC6144"/>
<path d="M113.832 20.3926H91.9169C90.0543 20.3926 88.4632 21.7624 88.1511 23.635L86.2582 34.9902C85.8616 37.3683 87.6584 39.5382 90.024 39.5382H90.1351L89.2816 44.1931L93.4967 39.5382H111.939C113.802 39.5382 115.393 38.1684 115.705 36.2958L117.598 24.9406C117.994 22.5625 116.197 20.3926 113.832 20.3926Z" fill="#EED9CE"/>
<g opacity="0.16">
<path d="M101.257 24.6732C103.592 24.8014 105.934 24.8318 108.272 24.8845C109.424 24.9105 110.576 24.9363 111.728 24.9624C112.899 24.9888 114.119 25.1158 115.286 25.0056C115.406 24.9943 115.459 24.7897 115.317 24.7697C114.209 24.6142 113.049 24.6766 111.931 24.6505C110.745 24.6231 109.559 24.5954 108.373 24.5679C106.002 24.5129 103.628 24.4342 101.257 24.4558C101.119 24.4571 101.121 24.6657 101.257 24.6732Z" fill="black"/>
</g>
<g opacity="0.16">
<path d="M100.624 27.5695C102.905 27.7038 105.19 27.769 107.474 27.7588C108.601 27.7537 109.727 27.7309 110.852 27.6899C111.949 27.6503 113.08 27.6599 114.165 27.4877C114.319 27.4631 114.275 27.222 114.129 27.2182C113.008 27.1882 111.871 27.3217 110.75 27.3607C109.624 27.3999 108.498 27.4213 107.372 27.4249C105.121 27.432 102.871 27.3655 100.624 27.2323C100.411 27.2195 100.412 27.5569 100.624 27.5695Z" fill="black"/>
</g>
<g opacity="0.16">
<path d="M100.644 29.8808C102.705 30.0711 104.779 30.2788 106.848 30.3596C108.914 30.4402 110.996 30.3137 113.06 30.2411C113.333 30.2314 113.334 29.7973 113.06 29.808C110.994 29.8896 108.917 30.0476 106.848 29.9775C104.778 29.9074 102.715 29.6814 100.644 29.6046C100.467 29.5979 100.473 29.865 100.644 29.8808Z" fill="black"/>
</g>
<g opacity="0.16">
<path d="M90.1419 32.0251C96.0186 32.5229 101.947 32.5548 107.841 32.6068C109.244 32.6192 110.657 32.6483 112.059 32.586C112.289 32.5757 112.291 32.2257 112.059 32.2201C109.338 32.1556 106.61 32.2136 103.888 32.1865C100.709 32.1548 97.5306 32.0992 94.3534 31.9911C92.949 31.9433 91.5448 31.9076 90.1419 31.8235C90.0141 31.8157 90.0163 32.0144 90.1419 32.0251Z" fill="black"/>
</g>
<g opacity="0.16">
<path d="M89.8898 34.0661C95.7009 34.5597 101.557 34.6472 107.385 34.7223C108.773 34.7401 110.171 34.7739 111.557 34.712C111.787 34.7017 111.789 34.3517 111.557 34.3461C108.836 34.2802 106.11 34.3242 103.389 34.2829C100.277 34.2355 97.1648 34.1612 94.0547 34.0422C92.6659 33.9891 91.2772 33.9478 89.8898 33.8645C89.7621 33.8567 89.7645 34.0554 89.8898 34.0661Z" fill="black"/>
</g>
<g opacity="0.16">
<path d="M90.9938 23.5219C90.7191 24.5417 90.6961 25.5947 90.6919 26.6458C90.6899 27.1792 90.6905 27.7136 90.6514 28.246C90.6105 28.8048 90.4148 29.3418 90.387 29.8924C90.3771 30.0877 90.6458 30.1467 90.7378 29.9893C90.9555 29.6167 90.985 29.1365 91.0346 28.7102C91.0998 28.1505 91.1084 27.5865 91.1093 27.0237C91.1111 25.8813 91.0848 24.7442 91.4029 23.6369C91.4801 23.3691 91.0662 23.2531 90.9938 23.5219Z" fill="black"/>
</g>
<g opacity="0.16">
<path d="M91.4049 23.664C94.0483 23.7169 96.6781 23.8036 99.3079 24.1036C99.2274 23.996 99.1471 23.8883 99.0667 23.7807C98.7842 25.839 98.6039 27.892 98.6082 29.9718C98.6091 30.3797 99.2325 30.3803 99.2299 29.9718C99.2163 27.9288 99.3013 25.8755 99.5581 23.8487C99.5766 23.7024 99.4278 23.6059 99.3079 23.5935C96.6896 23.3237 94.0343 23.1799 91.4049 23.3411C91.2026 23.3535 91.1993 23.66 91.4049 23.664Z" fill="black"/>
</g>
<g opacity="0.16">
<path d="M90.8443 30.2791C92.146 30.1285 93.4553 30.0741 94.7645 30.1318C95.3867 30.1593 96.0079 30.2105 96.6263 30.286C96.9868 30.3301 97.3459 30.3853 97.7052 30.4399C98.0126 30.4866 98.2431 30.5672 98.5355 30.4518C98.6863 30.3924 98.7818 30.1839 98.6384 30.0544C98.2169 29.6742 97.462 29.7042 96.9193 29.6469C96.2359 29.5747 95.5497 29.5325 94.8628 29.5191C93.4952 29.4922 92.1324 29.5883 90.7784 29.7822C90.5045 29.8215 90.566 30.3114 90.8443 30.2791Z" fill="black"/>
</g>
<g opacity="0.16">
<path d="M92.0677 24.7985C91.9679 25.8812 91.8899 26.968 91.8459 28.0548C91.8352 28.3208 92.2572 28.3225 92.2523 28.0548C92.2321 26.9661 92.256 25.8844 92.3367 24.7985C92.3498 24.6216 92.0836 24.6247 92.0677 24.7985Z" fill="black"/>
</g>
<g opacity="0.16">
<path d="M92.0885 28.2618C94.1697 28.3952 96.2752 28.506 98.3607 28.5096C98.628 28.51 98.6241 28.1048 98.3607 28.0891C96.2797 27.9647 94.1726 27.9456 92.0885 27.951C91.8907 27.9514 91.894 28.2494 92.0885 28.2618Z" fill="black"/>
</g>
<g opacity="0.16">
<path d="M93.0234 27.3564C93.1067 27.1019 93.19 26.8476 93.2734 26.593C93.3433 26.3796 93.4045 25.9522 93.5567 25.7885C93.9802 25.3338 94.5815 26.7277 94.7107 26.9237C94.957 27.2977 95.3978 27.5803 95.7242 27.1122C95.9414 26.8006 95.9515 26.3752 96.1151 26.0378C96.1264 25.8603 96.2209 25.7531 96.3985 25.7159C96.4742 25.8137 96.5501 25.9113 96.6259 26.0091C96.7503 26.1696 96.868 26.3647 97.0304 26.4896C97.1917 26.6138 97.3753 26.6602 97.5679 26.5773C97.8889 26.439 97.8957 25.979 98.1938 25.841C98.8443 25.5401 97.6451 24.8365 97.7171 25.5621C97.7414 25.8072 97.5047 26.2399 97.2349 26.0972C97.0683 26.0091 96.9131 25.7237 96.7868 25.5825C96.6291 25.4064 96.4252 25.1365 96.1513 25.2461C95.954 25.325 95.9116 25.5699 95.8462 25.7474C95.7505 26.0072 95.6474 26.2646 95.546 26.5221C95.532 26.7523 95.4141 26.8683 95.1922 26.87C95.1095 26.7676 95.0342 26.66 94.9665 26.5469C94.6932 26.14 94.329 25.228 93.6967 25.3369C93.4382 25.3814 93.3187 25.5736 93.2158 25.8003C93.0063 26.2617 92.8874 26.7911 92.7293 27.2735C92.667 27.4639 92.9614 27.5455 93.0234 27.3564Z" fill="black"/>
</g>
<path d="M81.7727 1.76367H67.3376C66.1108 1.76367 65.0628 2.66598 64.8572 3.8994L63.6104 11.3789C63.3493 12.9453 64.5329 14.3745 66.0909 14.3745H66.1639L64.7185 16.5184L68.3782 14.3745H80.5259C81.7527 14.3745 82.8007 13.4722 83.0063 12.2388L84.2533 4.75932C84.5142 3.19288 83.3308 1.76367 81.7727 1.76367Z" fill="#D6CED7"/>
<g opacity="0.16">
<path d="M66.9673 4.37816C69.5918 4.51561 72.2218 4.56891 74.8487 4.64151C76.1453 4.67739 77.4417 4.71306 78.7382 4.74895C80.0575 4.78546 81.4129 4.91556 82.7301 4.82722C82.8628 4.8184 82.8576 4.63626 82.7301 4.62074C81.452 4.46399 80.127 4.51561 78.8405 4.47951C77.51 4.44216 76.1792 4.4046 74.8487 4.36725C72.2226 4.29339 69.5945 4.20022 66.9673 4.19141C66.8488 4.19099 66.85 4.37208 66.9673 4.37816Z" fill="black"/>
</g>
<g opacity="0.16">
<path d="M66.3011 6.28846C68.827 6.41226 71.3549 6.49158 73.8834 6.52264C75.1136 6.53775 76.3439 6.54173 77.574 6.5346C78.8669 6.52704 80.181 6.56586 81.4693 6.45045C81.616 6.43723 81.6201 6.22068 81.4693 6.21439C80.2096 6.16235 78.9379 6.2402 77.6767 6.24754C76.4124 6.25509 75.1479 6.2509 73.8837 6.23495C71.3549 6.20305 68.8272 6.1229 66.3013 5.99825C66.1181 5.98923 66.1186 6.27964 66.3011 6.28846Z" fill="black"/>
</g>
<g opacity="0.16">
<path d="M65.8964 8.01409C70.8014 8.40187 75.747 8.44153 80.6625 8.26527C80.8419 8.25876 80.8428 7.97317 80.6625 7.9801C75.7348 8.16476 70.8203 8.07075 65.8964 7.83216C65.7809 7.8265 65.783 8.00507 65.8964 8.01409Z" fill="black"/>
</g>
<g opacity="0.16">
<path d="M65.506 9.87416C68.8782 10.1767 72.3126 10.3698 75.6984 10.246C75.8501 10.2405 75.8511 10.0076 75.6984 10.0051C72.2962 9.94781 68.9058 9.92788 65.506 9.74133C65.4214 9.73671 65.4235 9.86681 65.506 9.87416Z" fill="black"/>
</g>
<path d="M30.4065 5.94922H10.6477C8.96833 5.94922 7.53388 7.18433 7.25238 8.87268L5.54569 19.1107C5.18826 21.2548 6.80832 23.2113 8.94096 23.2113H25.6422L28.5553 26.9551L28.6733 23.2113H28.6998C30.3791 23.2113 31.8136 21.9762 32.0951 20.2879L33.8018 10.0499C34.1592 7.90575 32.5391 5.94922 30.4065 5.94922Z" fill="#D6CED7"/>
<g opacity="0.29">
<path d="M17.6569 9.73043C19.9982 9.8343 22.3428 9.87606 24.6856 9.93187C25.8399 9.95936 26.9945 9.98706 28.1489 10.0145C29.3311 10.0427 30.533 10.1354 31.7142 10.0762C31.8113 10.0714 31.8088 9.93334 31.7142 9.92411C30.5699 9.81164 29.4 9.84437 28.2508 9.81646C27.0624 9.7875 25.8739 9.75876 24.6856 9.7298C22.3432 9.67293 19.9999 9.6018 17.6569 9.59277C17.5697 9.59256 17.5705 9.72665 17.6569 9.73043Z" fill="black"/>
</g>
<g opacity="0.29">
<path d="M17.0384 12.3244C19.2902 12.4517 21.5449 12.5187 23.8002 12.5195C26.04 12.5204 28.3416 12.5651 30.5695 12.3109C30.6759 12.2988 30.6821 12.1374 30.5695 12.137C28.3149 12.1305 26.0575 12.3091 23.8002 12.3076C21.5449 12.3061 19.2902 12.2385 17.0384 12.1105C16.9037 12.103 16.9041 12.3168 17.0384 12.3244Z" fill="black"/>
</g>
<g opacity="0.29">
<path d="M8.68379 14.462C15.4021 14.96 22.1653 15.0303 28.8957 14.7824C29.0595 14.7764 29.0604 14.5162 28.8957 14.5222C22.1527 14.7707 15.4206 14.6582 8.68379 14.296C8.57864 14.2904 8.58008 14.4543 8.68379 14.462Z" fill="black"/>
</g>
<g opacity="0.29">
<path d="M8.14499 17.0208C12.7659 17.4097 17.4589 17.6598 22.0965 17.5051C22.235 17.5005 22.2358 17.2871 22.0965 17.2852C17.438 17.2237 12.7984 17.183 8.14499 16.8995C8.06824 16.8951 8.06947 17.0145 8.14499 17.0208Z" fill="black"/>
</g>
<g opacity="0.29">
<path d="M9.38333 8.68517C9.24341 9.67246 9.03784 10.6881 8.9724 11.6827C8.9331 12.2791 9.21151 12.5655 9.77883 12.6635C10.7579 12.8326 11.7779 12.8672 12.7665 12.9577C13.3589 13.0118 14.4386 13.2592 14.9302 12.7611C15.1697 12.5183 15.1088 12.1458 15.0925 11.8348C15.0693 11.3925 15.0203 10.9512 15.0195 10.5078C15.0187 9.95155 15.1777 9.49578 15.2993 8.96804C15.3551 8.72609 15.3664 8.48478 15.2061 8.27809C14.8191 7.77846 13.8505 7.96081 13.3167 7.9627C12.2331 7.96669 11.1485 7.99649 10.0651 8.01705C9.72739 8.02356 9.74241 8.58068 10.0651 8.54227C11.4707 8.37482 12.9173 8.2699 14.3336 8.33873C14.6452 8.35384 14.9639 8.3337 14.9575 8.87193C14.9561 8.99594 14.8658 9.14577 14.8318 9.26349C14.7501 9.54656 14.7114 9.83907 14.6985 10.1333C14.6847 10.4472 14.7071 10.7624 14.7333 11.075C14.7604 11.3999 14.8645 11.7954 14.8215 12.1183C14.7454 12.6925 14.2921 12.756 13.8128 12.7424C13.4634 12.7325 13.1142 12.6874 12.7661 12.6578C12.0547 12.5972 11.3427 12.5422 10.6309 12.4843C10.341 12.4608 9.78789 12.5252 9.52923 12.3731C9.33909 12.2612 9.18106 11.8919 9.16912 11.6825C9.15739 11.4773 9.23867 11.1669 9.26748 10.9544C9.36728 10.2159 9.49054 9.48193 9.59508 8.74456C9.61586 8.60334 9.40371 8.54227 9.38333 8.68517Z" fill="black"/>
</g>
<g opacity="0.29">
<path d="M11.4342 11.0247C11.5218 10.5419 11.5628 10.0509 11.6202 9.56361C11.5951 9.6081 11.5702 9.65259 11.5451 9.69707C11.6309 9.63895 12.47 10.6663 12.5647 10.7758C12.5898 10.6791 12.6147 10.5826 12.6398 10.4859C12.2758 10.6367 11.9095 10.7821 11.5469 10.9366C11.3445 11.0228 11.4297 11.3642 11.6395 11.2788C12.0048 11.1303 12.3665 10.9727 12.7304 10.8203C12.8503 10.7702 12.897 10.6357 12.8055 10.5303C12.5738 10.2645 12.3373 10.0036 12.0894 9.75352C11.9505 9.61335 11.7367 9.32062 11.5027 9.37224C11.2751 9.42239 11.3068 9.67567 11.2889 9.86095C11.2527 10.2376 11.2089 10.6134 11.1973 10.9918C11.1928 11.128 11.4091 11.1632 11.4342 11.0247Z" fill="black"/>
</g>
<path d="M96.3863 50.7486C96.6515 50.7486 96.8664 50.5295 96.8664 50.2591C96.8664 49.9887 96.6515 49.7695 96.3863 49.7695C96.1212 49.7695 95.9062 49.9887 95.9062 50.2591C95.9062 50.5295 96.1212 50.7486 96.3863 50.7486Z" fill="#2D2442"/>
<path d="M97.9039 50.7486C98.169 50.7486 98.384 50.5295 98.384 50.2591C98.384 49.9887 98.169 49.7695 97.9039 49.7695C97.6388 49.7695 97.4238 49.9887 97.4238 50.2591C97.4238 50.5295 97.6388 50.7486 97.9039 50.7486Z" fill="#2D2442"/>
<path d="M99.4215 50.7486C99.6866 50.7486 99.9016 50.5295 99.9016 50.2591C99.9016 49.9887 99.6866 49.7695 99.4215 49.7695C99.1563 49.7695 98.9414 49.9887 98.9414 50.2591C98.9414 50.5295 99.1563 50.7486 99.4215 50.7486Z" fill="#2D2442"/>
<path d="M98.2398 13.9586C98.505 13.9586 98.7199 13.7394 98.7199 13.469C98.7199 13.1987 98.505 12.9795 98.2398 12.9795C97.9747 12.9795 97.7598 13.1987 97.7598 13.469C97.7598 13.7394 97.9747 13.9586 98.2398 13.9586Z" fill="#2D2442"/>
<path d="M99.7574 13.9586C100.023 13.9586 100.237 13.7394 100.237 13.469C100.237 13.1987 100.023 12.9795 99.7574 12.9795C99.4923 12.9795 99.2773 13.1987 99.2773 13.469C99.2773 13.7394 99.4923 13.9586 99.7574 13.9586Z" fill="#2D2442"/>
<path d="M101.275 13.9586C101.54 13.9586 101.755 13.7394 101.755 13.469C101.755 13.1987 101.54 12.9795 101.275 12.9795C101.01 12.9795 100.795 13.1987 100.795 13.469C100.795 13.7394 101.01 13.9586 101.275 13.9586Z" fill="#2D2442"/>
<path d="M12.0973 32.7037C12.3624 32.7037 12.5773 32.4845 12.5773 32.2142C12.5773 31.9438 12.3624 31.7246 12.0973 31.7246C11.8321 31.7246 11.6172 31.9438 11.6172 32.2142C11.6172 32.4845 11.8321 32.7037 12.0973 32.7037Z" fill="#2D2442"/>
<path d="M13.6148 32.7037C13.88 32.7037 14.0949 32.4845 14.0949 32.2142C14.0949 31.9438 13.88 31.7246 13.6148 31.7246C13.3497 31.7246 13.1348 31.9438 13.1348 32.2142C13.1348 32.4845 13.3497 32.7037 13.6148 32.7037Z" fill="#2D2442"/>
<path d="M15.1324 32.7037C15.3976 32.7037 15.6125 32.4845 15.6125 32.2142C15.6125 31.9438 15.3976 31.7246 15.1324 31.7246C14.8673 31.7246 14.6523 31.9438 14.6523 32.2142C14.6523 32.4845 14.8673 32.7037 15.1324 32.7037Z" fill="#2D2442"/>
</svg>
